<svg width="102" height="101" viewBox="0 0 102 101" fill="none" xmlns="http://www.w3.org/2000/svg">
<path d="M25.7578 0C19.7194 0 14.1697 1.85176 9.84558 5.25271L15.2068 15.4055C18.6843 22.0928 24.8144 27.1382 32.0331 29.2613C41.4324 32.0256 48.9436 38.8155 52.6407 47.8895L56.175 56.4296C56.3439 56.27 56.5276 56.1278 56.6917 55.9629C67.6616 45.014 65.6022 25.1339 52.1105 11.6424C44.6923 4.24506 35.0884 0 25.7578 0Z" fill="url(#paint0_linear_4_44)"/>
<path d="M30.8469 33.2939C22.5374 30.8497 15.4797 25.0408 11.484 17.3562L6.69692 8.29042C2.10721 13.5585 0.0411137 20.6627 0.918063 28.4963C1.84273 36.7762 5.8986 44.909 12.3712 51.3816C19.7895 58.7789 29.3933 63.0449 38.724 63.0449C43.9119 63.0449 48.7394 61.6658 52.7404 59.1204L48.7527 49.4861C45.5369 41.5932 39.0118 35.695 30.8469 33.2939Z" fill="url(#paint1_linear_4_44)"/>
<path d="M81.6266 80.0676C86.0287 78.7737 89.5452 75.5947 91.2752 71.3456L94.4897 65.186C92.1368 63.7973 89.3637 63.0449 86.3859 63.0449C80.817 63.0449 75.1009 65.5667 70.6878 69.9589C66.842 73.8045 64.4252 78.6379 63.879 83.5765C63.4216 87.693 64.3235 91.4815 66.3885 94.5074L70.0951 89.4751C72.5034 84.9417 76.6971 81.5185 81.6266 80.0676Z" fill="url(#paint2_linear_4_44)"/>
<path d="M97.8054 67.9141L95.0842 73.1136C92.9519 78.3724 88.4482 82.4431 82.8128 84.1002C78.9217 85.2454 75.6166 87.9646 73.746 91.5632L73.5736 91.8403L69.2949 97.6493C71.9358 99.731 75.3172 100.872 78.9677 100.872C84.5365 100.872 90.2737 98.3291 94.6658 93.9369C102.49 86.1131 103.798 74.6307 97.8054 67.9141Z" fill="url(#paint3_linear_4_44)"/>
<path d="M72.0447 48.4046C73.6536 45.4104 76.4334 43.1508 79.6965 42.1904C82.2156 41.4495 84.2289 39.6302 85.2211 37.1973L87.4418 32.5237C86.0574 31.8908 84.525 31.5224 82.8975 31.5224C79.1988 31.5224 75.4161 33.1827 72.5371 36.0827C67.8632 40.7383 66.7089 47.3749 69.4313 51.9515L72.0447 48.4046Z" fill="url(#paint4_linear_4_44)"/>
<path d="M80.8827 46.223C78.656 46.8777 76.7649 48.4354 75.6936 50.4948L75.5212 50.7718L72.3835 55.031C74.063 56.1343 76.0903 56.7404 78.2531 56.7404C81.9518 56.7404 85.7344 55.0803 88.6345 52.1802C93.7146 47.0802 94.6156 39.6457 90.8695 35.0985L89.0639 38.8935C87.6356 42.4079 84.6352 45.1189 80.8827 46.223Z" fill="url(#paint5_linear_4_44)"/>
<path d="M15.9228 63.0449C12.8461 63.0449 9.96371 63.8499 7.5504 65.3435L10.7524 72.4415C12.5717 75.9344 15.8769 78.6536 19.7679 79.7987C25.3582 81.4426 29.8342 85.4619 32.0691 90.8357L34.9095 95.8126C40.7304 89.0748 39.3793 77.7374 31.6209 69.9589C27.2288 65.5667 21.4917 63.0449 15.9228 63.0449Z" fill="url(#paint6_linear_4_44)"/>
<path d="M18.5817 83.8314C13.5989 82.3651 9.36715 78.8824 6.97218 74.2751L4.23642 68.2155C1.53643 71.4149 0.315222 75.6499 0.834054 80.3192C1.38034 85.2577 3.79711 90.0911 7.64288 93.9369C12.056 98.3291 17.7721 100.872 23.341 100.872C26.4085 100.872 29.2618 100.067 31.6585 98.5902L28.2303 92.5534C26.5003 88.3043 22.9838 85.1253 18.5817 83.8314Z" fill="url(#paint7_linear_4_44)"/>
<defs>
<linearGradient id="paint0_linear_4_44" x1="9.84558" y1="0" x2="63.7427" y2="0" gradientUnits="userSpaceOnUse">
<stop stop-color="#834F2A"/>
<stop offset="0.5" stop-color="#DBA173"/>
<stop offset="1" stop-color="#834F2A"/>
</linearGradient>
<linearGradient id="paint1_linear_4_44" x1="0.720673" y1="8.29042" x2="52.7404" y2="8.29042" gradientUnits="userSpaceOnUse">
<stop stop-color="#834F2A"/>
<stop offset="0.5" stop-color="#DBA173"/>
<stop offset="1" stop-color="#834F2A"/>
</linearGradient>
<linearGradient id="paint2_linear_4_44" x1="63.7626" y1="63.0449" x2="94.4897" y2="63.0449" gradientUnits="userSpaceOnUse">
<stop stop-color="#834F2A"/>
<stop offset="0.5" stop-color="#DBA173"/>
<stop offset="1" stop-color="#834F2A"/>
</linearGradient>
<linearGradient id="paint3_linear_4_44" x1="69.2949" y1="67.9141" x2="101.55" y2="67.9141" gradientUnits="userSpaceOnUse">
<stop stop-color="#834F2A"/>
<stop offset="0.5" stop-color="#DBA173"/>
<stop offset="1" stop-color="#834F2A"/>
</linearGradient>
<linearGradient id="paint4_linear_4_44" x1="67.9816" y1="31.5224" x2="87.4418" y2="31.5224" gradientUnits="userSpaceOnUse">
<stop stop-color="#834F2A"/>
<stop offset="0.5" stop-color="#DBA173"/>
<stop offset="1" stop-color="#834F2A"/>
</linearGradient>
<linearGradient id="paint5_linear_4_44" x1="72.3835" y1="35.0985" x2="93.166" y2="35.0985" gradientUnits="userSpaceOnUse">
<stop stop-color="#834F2A"/>
<stop offset="0.5" stop-color="#DBA173"/>
<stop offset="1" stop-color="#834F2A"/>
</linearGradient>
<linearGradient id="paint6_linear_4_44" x1="7.5504" y1="63.0449" x2="38.5056" y2="63.0449" gradientUnits="userSpaceOnUse">
<stop stop-color="#834F2A"/>
<stop offset="0.5" stop-color="#DBA173"/>
<stop offset="1" stop-color="#834F2A"/>
</linearGradient>
<linearGradient id="paint7_linear_4_44" x1="0.717148" y1="68.2155" x2="31.6585" y2="68.2155" gradientUnits="userSpaceOnUse">
<stop stop-color="#834F2A"/>
<stop offset="0.5" stop-color="#DBA173"/>
<stop offset="1" stop-color="#834F2A"/>
</linearGradient>
</defs>
</svg>
